<svg width="316" height="24" viewBox="0 0 316 24" fill="none" xmlns="http://www.w3.org/2000/svg">
<g id="Home &#226;&#128;&#162; Desktop">
<g id="Container">
<g id="Frame 1">
<g id="Group">
<g id="Group_2">
<g id="Group_3">
<path id="Vector" d="M19.3583 15.6673H9.98622V0H0V13.7539C0 19.2697 4.47047 23.7461 9.99213 23.7461V23.7342H19.3583V15.6673Z" fill="#020808"/>
</g>
<g id="Group_4">
<path id="Vector_2" d="M46.9901 23.7461V10.9902C46.9901 9.40748 48.2775 8.12008 49.8602 8.12008C51.4429 8.12008 52.7303 9.40748 52.7303 10.9902V23.7461H62.7224V10.0335C62.7224 4.51771 58.252 0.041338 52.7303 0.041338V0.0531493C51.0059 0.0531493 48.9685 0.165353 47.3622 3.30118C41.3976 14.9409 36.998 23.7402 36.998 23.7402H46.9901V23.7461Z" fill="#020808"/>
</g>
<g id="Group_5">
<path id="Vector_3" d="M35.7047 0.041338V12.7972C35.7047 14.3799 34.4173 15.6673 32.8346 15.6673C31.252 15.6673 29.9646 14.3799 29.9646 12.7972V0.041338H19.9724V13.7539C19.9724 19.2697 24.4429 23.7461 29.9646 23.7461V23.7342C31.689 23.7342 33.7264 23.622 35.3327 20.4862C41.2972 8.84646 45.6909 0.0472436 45.6909 0.0472436H35.7047V0.041338Z" fill="#020808"/>
</g>
<path id="Vector_4" d="M84.7854 2.74606C82.8543 1.10433 80.3327 0.0767714 76.8779 0.0118108V0.00590511C76.7539 0.00590511 76.6299 0.00590511 76.5118 0.00590511C76.5 0.00590511 76.4823 0.00590511 76.4705 0.00590511C68.7697 -0.041339 65.0138 2.70472 65.0138 2.70472L67.9311 8.20276C69.5905 7.64173 71.1201 7.22835 74.0492 7.12795C76.2106 7.05118 77.5748 7.75394 78.1535 9.0059C78.3307 9.38976 78.4016 9.82086 78.4075 10.2461L78.4429 12.7264H78.4488V13.6417C78.4488 14.3445 78.2244 15.0354 77.752 15.5551C77.6043 15.7205 77.4449 15.8622 77.2618 15.9803C76.7244 16.3465 76.122 16.5295 75.4429 16.5295C74.7402 16.5295 74.1791 16.3524 73.7716 16.0039C73.3642 15.6496 73.1575 15.2067 73.1575 14.6752V9.87401C70.2992 10.0157 68.1142 10.5945 66.6083 11.6161C64.8602 12.7972 63.9862 14.5335 63.9862 16.813C63.9862 18.1654 64.3169 19.3819 64.9783 20.4685C65.6398 21.5551 66.6142 22.4114 67.8957 23.0492C69.1772 23.6811 70.7362 24 72.5669 24C75.8327 24 78.0177 22.8425 79.1161 20.5335V23.5748H87.9921V11.1319C87.998 7.35827 86.9291 4.55905 84.7854 2.74606Z" fill="#020808"/>
</g>
</g>
<g id="Group_6">
<path id="Vector_5" d="M115.65 12.9478C116.087 13.5148 116.299 14.2175 116.299 15.0443C116.299 16.2195 115.845 17.123 114.929 17.7549C114.014 18.3868 112.685 18.7057 110.931 18.7057H103.992V5.28839H110.547C112.183 5.28839 113.441 5.60138 114.315 6.22736C115.189 6.85335 115.626 7.70374 115.626 8.77854C115.626 9.42815 115.467 10.0128 115.154 10.5207C114.841 11.0345 114.404 11.436 113.843 11.7254C114.616 11.9734 115.219 12.3809 115.65 12.9478ZM107.087 7.62697V10.7864H110.169C110.937 10.7864 111.516 10.6506 111.911 10.3848C112.307 10.1191 112.508 9.72343 112.508 9.19784C112.508 8.67225 112.307 8.28248 111.911 8.01673C111.516 7.75689 110.931 7.62697 110.169 7.62697H107.087ZM112.555 15.9656C112.969 15.6998 113.175 15.2805 113.175 14.7195C113.175 13.6093 112.354 13.0541 110.701 13.0541H107.081V16.3671H110.701C111.522 16.3671 112.142 16.2313 112.555 15.9656Z" fill="#020808"/>
<path id="Vector_6" d="M128.016 18.7057L125.429 14.9675H125.276H122.571V18.7057H119.465V5.28839H125.27C126.457 5.28839 127.49 5.48327 128.364 5.88484C129.238 6.28051 129.911 6.84154 130.384 7.57382C130.856 8.3002 131.093 9.1624 131.093 10.1604C131.093 11.1585 130.85 12.0148 130.372 12.7411C129.894 13.4616 129.215 14.0167 128.329 14.4006L131.341 18.7116H128.016V18.7057ZM127.23 8.42421C126.746 8.02264 126.037 7.82185 125.104 7.82185H122.577V12.499H125.104C126.037 12.499 126.746 12.2923 127.23 11.8848C127.715 11.4774 127.957 10.8986 127.957 10.1604C127.957 9.40453 127.715 8.82579 127.23 8.42421Z" fill="#020808"/>
<path id="Vector_7" d="M143.193 15.8297H136.963L135.776 18.7057H132.593L138.575 5.28839H141.64L147.64 18.7057H144.38L143.193 15.8297ZM142.213 13.4734L140.087 8.33563L137.961 13.4734H142.213Z" fill="#020808"/>
<path id="Vector_8" d="M162.144 5.28839V18.7057H159.593L152.902 10.562V18.7057H149.837V5.28839H152.406L159.073 13.4321V5.28839H162.144Z" fill="#020808"/>
<path id="Vector_9" d="M166.136 5.28839H172.23C173.689 5.28839 174.976 5.56595 176.093 6.12106C177.209 6.67618 178.077 7.46162 178.697 8.47146C179.317 9.4813 179.624 10.6565 179.624 11.997C179.624 13.3376 179.311 14.5128 178.697 15.5226C178.077 16.5325 177.209 17.312 176.093 17.873C174.976 18.4282 173.689 18.7057 172.23 18.7057H166.136V5.28839ZM172.077 16.1604C173.417 16.1604 174.486 15.7884 175.289 15.0384C176.087 14.2884 176.488 13.2785 176.488 12.003C176.488 10.7274 176.087 9.71162 175.289 8.96752C174.492 8.21752 173.423 7.84547 172.077 7.84547H169.242V16.1604H172.077Z" fill="#020808"/>
<path id="Vector_10" d="M182.766 5.28839H185.872V18.7057H182.766V5.28839Z" fill="#020808"/>
<path id="Vector_11" d="M202.165 5.28839V18.7057H199.614L192.923 10.562V18.7057H189.858V5.28839H192.427L199.095 13.4321V5.28839H202.165Z" fill="#020808"/>
<path id="Vector_12" d="M215.217 11.7904H218.051V17.2352C217.325 17.7844 216.48 18.2037 215.524 18.499C214.567 18.7943 213.598 18.9419 212.63 18.9419C211.236 18.9419 209.984 18.6467 208.874 18.0502C207.764 17.4537 206.89 16.6329 206.258 15.5758C205.626 14.5187 205.307 13.3317 205.307 12.003C205.307 10.6742 205.626 9.4813 206.258 8.43012C206.89 7.37894 207.77 6.55217 208.892 5.95571C210.014 5.35925 211.283 5.06398 212.689 5.06398C213.864 5.06398 214.933 5.26477 215.89 5.66043C216.846 6.0561 217.656 6.62894 218.305 7.38484L216.309 9.22736C215.352 8.21752 214.195 7.71555 212.843 7.71555C211.986 7.71555 211.224 7.89272 210.563 8.25295C209.896 8.61319 209.382 9.11516 209.01 9.76476C208.638 10.4144 208.455 11.1644 208.455 12.0089C208.455 12.8415 208.638 13.5797 209.01 14.2293C209.382 14.8789 209.896 15.3868 210.551 15.753C211.207 16.1191 211.957 16.2963 212.801 16.2963C213.693 16.2963 214.502 16.1073 215.217 15.7234V11.7904Z" fill="#020808"/>
<path id="Vector_13" d="M236.795 15.8297H230.565L229.378 18.7057H226.195L232.177 5.28839H235.242L241.242 18.7057H237.982L236.795 15.8297ZM235.815 13.4734L233.689 8.33563L231.563 13.4734H235.815Z" fill="#020808"/>
<path id="Vector_14" d="M252.321 11.7904H255.156V17.2352C254.429 17.7844 253.585 18.2037 252.628 18.499C251.671 18.7943 250.703 18.9419 249.734 18.9419C248.341 18.9419 247.089 18.6467 245.978 18.0502C244.868 17.4537 243.994 16.6329 243.362 15.5758C242.73 14.5187 242.411 13.3317 242.411 12.003C242.411 10.6742 242.73 9.4813 243.362 8.43012C243.994 7.37894 244.874 6.55217 245.996 5.95571C247.118 5.35925 248.388 5.06398 249.793 5.06398C250.969 5.06398 252.037 5.26477 252.994 5.66043C253.951 6.0561 254.76 6.62894 255.409 7.38484L253.413 9.22736C252.457 8.21752 251.299 7.71555 249.947 7.71555C249.091 7.71555 248.329 7.89272 247.667 8.25295C247.006 8.61319 246.486 9.11516 246.114 9.76476C245.742 10.4144 245.559 11.1644 245.559 12.0089C245.559 12.8415 245.742 13.5797 246.114 14.2293C246.486 14.8789 247 15.3868 247.656 15.753C248.311 16.1191 249.061 16.2963 249.906 16.2963C250.797 16.2963 251.606 16.1073 252.321 15.7234V11.7904Z" fill="#020808"/>
<path id="Vector_15" d="M269.222 16.2136V18.7057H258.835V5.28839H268.974V7.78051H261.923V10.6919H268.154V13.1073H261.923V16.2136H269.222Z" fill="#020808"/>
<path id="Vector_16" d="M284.801 5.28839V18.7057H282.25L275.559 10.562V18.7057H272.494V5.28839H275.063L281.73 13.4321V5.28839H284.801Z" fill="#020808"/>
<path id="Vector_17" d="M291.504 18.0443C290.4 17.4478 289.532 16.627 288.9 15.5699C288.268 14.5128 287.949 13.3258 287.949 11.997C287.949 10.6683 288.268 9.47539 288.9 8.42421C289.532 7.37303 290.4 6.54626 291.504 5.9498C292.608 5.35335 293.854 5.05807 295.23 5.05807C296.394 5.05807 297.445 5.26476 298.384 5.67224C299.323 6.07973 300.114 6.67028 300.752 7.43799L298.756 9.27461C297.846 8.22933 296.724 7.70374 295.384 7.70374C294.551 7.70374 293.813 7.88681 293.163 8.24705C292.514 8.61319 292.006 9.12106 291.64 9.77067C291.274 10.4203 291.091 11.1644 291.091 11.9911C291.091 12.8238 291.274 13.562 291.64 14.2116C292.006 14.8612 292.514 15.3691 293.163 15.7352C293.813 16.1014 294.557 16.2785 295.384 16.2785C296.724 16.2785 297.852 15.747 298.756 14.69L300.752 16.5266C300.114 17.3061 299.323 17.9026 298.378 18.31C297.433 18.7175 296.376 18.9242 295.213 18.9242C293.843 18.936 292.608 18.6407 291.504 18.0443Z" fill="#020808"/>
<path id="Vector_18" d="M309.947 13.9518V18.7057H306.841V13.9163L301.65 5.29429H304.945L308.53 11.253L312.114 5.29429H315.161L309.947 13.9518Z" fill="#020808"/>
</g>
</g>
</g>
</g>
</svg>
