<svg width="539" height="539" viewBox="0 0 539 539" fill="none" xmlns="http://www.w3.org/2000/svg">
<g id="Home &#226;&#128;&#162; Desktop">
<g id="Layout / 373 /">
<g id="Group 2">
<path id="Vector" d="M403.884 403.884C478.237 329.531 478.237 208.981 403.884 134.628C329.531 60.2751 208.981 60.2751 134.628 134.628C60.275 208.981 60.275 329.531 134.628 403.884C208.981 478.237 329.531 478.237 403.884 403.884Z" fill="#F15822"/>
<g id="Group">
<path id="Vector_2" d="M183.78 264.037H151.24V209.602H116.506V257.403C116.506 276.573 132.045 292.111 151.215 292.111V292.061H183.755V264.037H183.78Z" fill="white"/>
<path id="Vector_3" d="M279.81 292.112V247.792C279.81 242.293 284.275 237.828 289.774 237.828C295.272 237.828 299.737 242.293 299.737 247.792V292.112H334.446V244.462C334.446 225.292 318.908 209.754 299.737 209.754V209.804C293.734 209.804 286.671 210.208 281.071 221.079C260.362 261.514 245.076 292.112 245.076 292.112H279.81Z" fill="white"/>
<path id="Vector_4" d="M240.586 209.754V254.073C240.586 259.572 236.121 264.037 230.622 264.037C225.123 264.037 220.658 259.572 220.658 254.073V209.754H185.924V257.403C185.924 276.573 201.462 292.112 220.633 292.112V292.061C226.637 292.061 233.699 291.658 239.299 280.786C260.009 240.351 275.295 209.754 275.295 209.754H240.586Z" fill="white"/>
<path id="Vector_5" d="M411.129 219.137C404.419 213.436 395.666 209.854 383.659 209.627C383.23 209.627 382.802 209.627 382.373 209.627C382.322 209.627 382.272 209.627 382.221 209.627C355.458 209.476 342.417 219.011 342.417 219.011L352.557 238.106C358.334 236.163 363.631 234.726 373.822 234.373C381.313 234.095 386.081 236.542 388.073 240.906C388.679 242.243 388.931 243.731 388.956 245.219L389.082 253.846H389.108V257.024C389.108 259.446 388.326 261.867 386.686 263.683C386.182 264.238 385.601 264.743 384.996 265.172C383.129 266.433 381.036 267.089 378.69 267.089C376.243 267.089 374.301 266.483 372.888 265.247C371.476 264.011 370.769 262.473 370.769 260.631V243.933C360.831 244.412 353.238 246.43 347.992 249.987C341.913 254.098 338.886 260.127 338.886 268.047C338.886 272.739 340.046 276.977 342.341 280.76C344.637 284.519 348.017 287.521 352.482 289.715C356.946 291.91 362.344 293.02 368.701 293.02C380.052 293.02 387.645 289.009 391.479 280.987V291.557H422.328V248.296C422.303 235.154 418.57 225.443 411.129 219.137Z" fill="white"/>
<g id="Group_2">
<path id="Vector_6" d="M133.003 320.237C133.634 321.069 133.936 322.078 133.936 323.289C133.936 325.004 133.281 326.316 131.944 327.224C130.607 328.132 128.69 328.611 126.142 328.611H116.077V309.138H125.587C127.958 309.138 129.774 309.592 131.061 310.5C132.322 311.408 132.978 312.644 132.978 314.208C132.978 315.141 132.751 315.999 132.297 316.731C131.843 317.462 131.212 318.067 130.38 318.471C131.49 318.824 132.372 319.43 133.003 320.237ZM120.567 312.518V317.109H125.032C126.142 317.109 127 316.907 127.555 316.529C128.135 316.15 128.412 315.57 128.412 314.813C128.412 314.057 128.135 313.477 127.555 313.098C126.974 312.72 126.142 312.518 125.032 312.518H120.567ZM128.513 324.626C129.119 324.247 129.421 323.642 129.421 322.81C129.421 321.195 128.236 320.388 125.839 320.388H120.593V325.206H125.839C127 325.206 127.908 325.004 128.513 324.626Z" fill="white"/>
<path id="Vector_7" d="M150.938 328.586L147.179 323.163H146.952H143.042V328.586H138.527V309.113H146.952C148.668 309.113 150.181 309.39 151.442 309.97C152.703 310.55 153.687 311.358 154.368 312.417C155.049 313.477 155.402 314.713 155.402 316.176C155.402 317.639 155.049 318.875 154.368 319.909C153.662 320.968 152.678 321.75 151.417 322.305L155.781 328.561H150.938V328.586ZM149.777 313.678C149.071 313.098 148.037 312.795 146.7 312.795H143.017V319.581H146.7C148.062 319.581 149.071 319.278 149.777 318.698C150.484 318.093 150.837 317.26 150.837 316.201C150.837 315.091 150.484 314.258 149.777 313.678Z" fill="white"/>
<path id="Vector_8" d="M172.959 324.424H163.928L162.213 328.586H157.597L166.274 309.113H170.714L179.416 328.586H174.699L172.959 324.424ZM171.521 321.019L168.444 313.577L165.366 321.019H171.521Z" fill="white"/>
<path id="Vector_9" d="M200.453 309.138V328.611H196.745L187.034 316.806V328.611H182.594V309.138H186.328L196.014 320.943V309.138H200.453Z" fill="white"/>
<path id="Vector_10" d="M206.23 309.138H215.084C217.203 309.138 219.069 309.542 220.684 310.349C222.298 311.156 223.559 312.291 224.467 313.754C225.375 315.217 225.804 316.932 225.804 318.875C225.804 320.817 225.35 322.532 224.467 323.995C223.559 325.458 222.298 326.593 220.684 327.4C219.069 328.208 217.203 328.611 215.084 328.611H206.23V309.138ZM214.857 324.903C216.799 324.903 218.363 324.374 219.523 323.264C220.684 322.179 221.264 320.716 221.264 318.849C221.264 317.008 220.684 315.52 219.523 314.435C218.363 313.35 216.824 312.821 214.857 312.821H210.745V324.878H214.857V324.903Z" fill="white"/>
<path id="Vector_11" d="M230.37 309.138H234.885V328.611H230.37V309.138Z" fill="white"/>
<path id="Vector_12" d="M258.495 309.138V328.611H254.787L245.076 316.806V328.611H240.636V309.138H244.369L254.056 320.943V309.138H258.495Z" fill="white"/>
<path id="Vector_13" d="M277.439 318.547H281.55V326.442C280.491 327.249 279.28 327.855 277.868 328.283C276.48 328.712 275.068 328.914 273.68 328.914C271.662 328.914 269.846 328.485 268.232 327.628C266.617 326.77 265.356 325.559 264.448 324.046C263.54 322.532 263.061 320.792 263.061 318.849C263.061 316.932 263.515 315.192 264.448 313.653C265.356 312.114 266.643 310.929 268.282 310.071C269.922 309.214 271.738 308.785 273.781 308.785C275.496 308.785 277.035 309.062 278.422 309.642C279.81 310.223 280.97 311.055 281.929 312.14L279.028 314.813C277.64 313.35 275.95 312.619 273.983 312.619C272.747 312.619 271.637 312.871 270.678 313.401C269.72 313.931 268.963 314.662 268.434 315.595C267.904 316.529 267.626 317.613 267.626 318.849C267.626 320.06 267.904 321.12 268.434 322.078C268.963 323.011 269.72 323.768 270.678 324.298C271.637 324.828 272.722 325.08 273.958 325.08C275.244 325.08 276.43 324.802 277.464 324.247V318.547H277.439Z" fill="white"/>
<path id="Vector_14" d="M308.742 324.424H299.712L297.997 328.586H293.381L302.058 309.113H306.497L315.2 328.586H310.483L308.742 324.424ZM307.33 321.019L304.252 313.577L301.175 321.019H307.33Z" fill="white"/>
<path id="Vector_15" d="M331.268 318.547H335.379V326.442C334.32 327.249 333.109 327.855 331.697 328.283C330.309 328.712 328.897 328.914 327.509 328.914C325.491 328.914 323.675 328.485 322.061 327.628C320.446 326.77 319.185 325.559 318.277 324.046C317.369 322.507 316.89 320.792 316.89 318.849C316.89 316.932 317.344 315.192 318.277 313.653C319.185 312.114 320.472 310.929 322.111 310.071C323.751 309.214 325.567 308.785 327.61 308.785C329.326 308.785 330.864 309.062 332.252 309.642C333.639 310.223 334.799 311.055 335.758 312.14L332.857 314.813C331.47 313.35 329.78 312.619 327.812 312.619C326.576 312.619 325.466 312.871 324.508 313.401C323.549 313.931 322.792 314.662 322.263 315.595C321.733 316.529 321.455 317.613 321.455 318.849C321.455 320.06 321.733 321.12 322.263 322.078C322.792 323.011 323.549 323.768 324.508 324.298C325.466 324.828 326.551 325.08 327.787 325.08C329.073 325.08 330.259 324.802 331.293 324.247V318.547H331.268Z" fill="white"/>
<path id="Vector_16" d="M355.786 324.979V328.586H340.727V309.113H355.433V312.72H345.192V316.957H354.222V320.464H345.192V324.979H355.786Z" fill="white"/>
<path id="Vector_17" d="M378.387 309.138V328.611H374.679L364.968 316.806V328.611H360.528V309.138H364.262L373.948 320.943V309.138H378.387Z" fill="white"/>
<path id="Vector_18" d="M388.099 327.628C386.484 326.77 385.223 325.559 384.315 324.046C383.407 322.507 382.928 320.792 382.928 318.849C382.928 316.932 383.382 315.192 384.315 313.653C385.223 312.114 386.484 310.929 388.099 310.071C389.713 309.214 391.504 308.785 393.497 308.785C395.187 308.785 396.7 309.087 398.062 309.668C399.424 310.273 400.56 311.105 401.493 312.215L398.642 314.914C397.331 313.401 395.691 312.644 393.749 312.644C392.538 312.644 391.479 312.922 390.52 313.426C389.587 313.956 388.83 314.687 388.3 315.646C387.771 316.579 387.518 317.664 387.518 318.875C387.518 320.085 387.771 321.145 388.3 322.103C388.83 323.037 389.562 323.793 390.52 324.323C391.454 324.853 392.538 325.105 393.749 325.105C395.691 325.105 397.331 324.348 398.642 322.81L401.543 325.483C400.61 326.619 399.475 327.476 398.088 328.082C396.725 328.662 395.187 328.964 393.497 328.964C391.504 328.939 389.713 328.51 388.099 327.628Z" fill="white"/>
<path id="Vector_19" d="M414.862 321.7V328.586H410.347V321.624L402.805 309.113H407.597L412.793 317.765L417.99 309.113H422.404L414.862 321.7Z" fill="white"/>
</g>
</g>
</g>
</g>
</g>
</svg>
